<?xml version="1.0" encoding="UTF-8"?>
<svg xmlns="http://www.w3.org/2000/svg" class="qr-svg qrcode" viewBox="0 0 29 29" preserveAspectRatio="xMidYMid">
<path class="qr-data light qrcode" fill="#fff" d="M13.1 4.5 a0.4 0.4 0 1 0 0.8 0 a0.4 0.4 0 1 0 -0.8 0Z M14.1 4.5 a0.4 0.4 0 1 0 0.8 0 a0.4 0.4 0 1 0 -0.8 0Z M15.1 4.5 a0.4 0.4 0 1 0 0.8 0 a0.4 0.4 0 1 0 -0.8 0Z M14.1 6.5 a0.4 0.4 0 1 0 0.8 0 a0.4 0.4 0 1 0 -0.8 0Z M15.1 6.5 a0.4 0.4 0 1 0 0.8 0 a0.4 0.4 0 1 0 -0.8 0Z M13.1 7.5 a0.4 0.4 0 1 0 0.8 0 a0.4 0.4 0 1 0 -0.8 0Z M14.1 7.5 a0.4 0.4 0 1 0 0.8 0 a0.4 0.4 0 1 0 -0.8 0Z M15.1 7.5 a0.4 0.4 0 1 0 0.8 0 a0.4 0.4 0 1 0 -0.8 0Z M14.1 8.5 a0.4 0.4 0 1 0 0.8 0 a0.4 0.4 0 1 0 -0.8 0Z M13.1 9.5 a0.4 0.4 0 1 0 0.8 0 a0.4 0.4 0 1 0 -0.8 0Z M14.1 11.5 a0.4 0.4 0 1 0 0.8 0 a0.4 0.4 0 1 0 -0.8 0Z M15.1 11.5 a0.4 0.4 0 1 0 0.8 0 a0.4 0.4 0 1 0 -0.8 0Z M4.1 13.5 a0.4 0.4 0 1 0 0.8 0 a0.4 0.4 0 1 0 -0.8 0Z M5.1 13.5 a0.4 0.4 0 1 0 0.8 0 a0.4 0.4 0 1 0 -0.8 0Z M7.1 13.5 a0.4 0.4 0 1 0 0.8 0 a0.4 0.4 0 1 0 -0.8 0Z M8.1 13.5 a0.4 0.4 0 1 0 0.8 0 a0.4 0.4 0 1 0 -0.8 0Z M9.1 13.5 a0.4 0.4 0 1 0 0.8 0 a0.4 0.4 0 1 0 -0.8 0Z M11.1 13.5 a0.4 0.4 0 1 0 0.8 0 a0.4 0.4 0 1 0 -0.8 0Z M17.1 13.5 a0.4 0.4 0 1 0 0.8 0 a0.4 0.4 0 1 0 -0.8 0Z M19.1 13.5 a0.4 0.4 0 1 0 0.8 0 a0.4 0.4 0 1 0 -0.8 0Z M20.1 13.5 a0.4 0.4 0 1 0 0.8 0 a0.4 0.4 0 1 0 -0.8 0Z M22.1 13.5 a0.4 0.4 0 1 0 0.8 0 a0.4 0.4 0 1 0 -0.8 0Z M24.1 13.5 a0.4 0.4 0 1 0 0.8 0 a0.4 0.4 0 1 0 -0.8 0Z M4.1 14.5 a0.4 0.4 0 1 0 0.8 0 a0.4 0.4 0 1 0 -0.8 0Z M7.1 14.5 a0.4 0.4 0 1 0 0.8 0 a0.4 0.4 0 1 0 -0.8 0Z M9.1 14.5 a0.4 0.4 0 1 0 0.8 0 a0.4 0.4 0 1 0 -0.8 0Z M19.1 14.5 a0.4 0.4 0 1 0 0.8 0 a0.4 0.4 0 1 0 -0.8 0Z M20.1 14.5 a0.4 0.4 0 1 0 0.8 0 a0.4 0.4 0 1 0 -0.8 0Z M21.1 14.5 a0.4 0.4 0 1 0 0.8 0 a0.4 0.4 0 1 0 -0.8 0Z M24.1 14.5 a0.4 0.4 0 1 0 0.8 0 a0.4 0.4 0 1 0 -0.8 0Z M4.1 15.5 a0.4 0.4 0 1 0 0.8 0 a0.4 0.4 0 1 0 -0.8 0Z M5.1 15.5 a0.4 0.4 0 1 0 0.8 0 a0.4 0.4 0 1 0 -0.8 0Z M6.1 15.5 a0.4 0.4 0 1 0 0.8 0 a0.4 0.4 0 1 0 -0.8 0Z M7.1 15.5 a0.4 0.4 0 1 0 0.8 0 a0.4 0.4 0 1 0 -0.8 0Z M9.1 15.5 a0.4 0.4 0 1 0 0.8 0 a0.4 0.4 0 1 0 -0.8 0Z M19.1 15.5 a0.4 0.4 0 1 0 0.8 0 a0.4 0.4 0 1 0 -0.8 0Z M20.1 15.5 a0.4 0.4 0 1 0 0.8 0 a0.4 0.4 0 1 0 -0.8 0Z M22.1 15.5 a0.4 0.4 0 1 0 0.8 0 a0.4 0.4 0 1 0 -0.8 0Z M5.1 16.5 a0.4 0.4 0 1 0 0.8 0 a0.4 0.4 0 1 0 -0.8 0Z M8.1 16.5 a0.4 0.4 0 1 0 0.8 0 a0.4 0.4 0 1 0 -0.8 0Z M9.1 16.5 a0.4 0.4 0 1 0 0.8 0 a0.4 0.4 0 1 0 -0.8 0Z M11.1 16.5 a0.4 0.4 0 1 0 0.8 0 a0.4 0.4 0 1 0 -0.8 0Z M17.1 16.5 a0.4 0.4 0 1 0 0.8 0 a0.4 0.4 0 1 0 -0.8 0Z M19.1 16.5 a0.4 0.4 0 1 0 0.8 0 a0.4 0.4 0 1 0 -0.8 0Z M21.1 16.5 a0.4 0.4 0 1 0 0.8 0 a0.4 0.4 0 1 0 -0.8 0Z M22.1 16.5 a0.4 0.4 0 1 0 0.8 0 a0.4 0.4 0 1 0 -0.8 0Z M24.1 16.5 a0.4 0.4 0 1 0 0.8 0 a0.4 0.4 0 1 0 -0.8 0Z M14.1 17.5 a0.4 0.4 0 1 0 0.8 0 a0.4 0.4 0 1 0 -0.8 0Z M15.1 17.5 a0.4 0.4 0 1 0 0.8 0 a0.4 0.4 0 1 0 -0.8 0Z M17.1 17.5 a0.4 0.4 0 1 0 0.8 0 a0.4 0.4 0 1 0 -0.8 0Z M18.1 17.5 a0.4 0.4 0 1 0 0.8 0 a0.4 0.4 0 1 0 -0.8 0Z M21.1 17.5 a0.4 0.4 0 1 0 0.8 0 a0.4 0.4 0 1 0 -0.8 0Z M23.1 17.5 a0.4 0.4 0 1 0 0.8 0 a0.4 0.4 0 1 0 -0.8 0Z M24.1 17.5 a0.4 0.4 0 1 0 0.8 0 a0.4 0.4 0 1 0 -0.8 0Z M15.1 18.5 a0.4 0.4 0 1 0 0.8 0 a0.4 0.4 0 1 0 -0.8 0Z M16.1 18.5 a0.4 0.4 0 1 0 0.8 0 a0.4 0.4 0 1 0 -0.8 0Z M20.1 18.5 a0.4 0.4 0 1 0 0.8 0 a0.4 0.4 0 1 0 -0.8 0Z M13.1 19.5 a0.4 0.4 0 1 0 0.8 0 a0.4 0.4 0 1 0 -0.8 0Z M14.1 19.5 a0.4 0.4 0 1 0 0.8 0 a0.4 0.4 0 1 0 -0.8 0Z M15.1 19.5 a0.4 0.4 0 1 0 0.8 0 a0.4 0.4 0 1 0 -0.8 0Z M16.1 19.5 a0.4 0.4 0 1 0 0.8 0 a0.4 0.4 0 1 0 -0.8 0Z M18.1 19.5 a0.4 0.4 0 1 0 0.8 0 a0.4 0.4 0 1 0 -0.8 0Z M21.1 19.5 a0.4 0.4 0 1 0 0.8 0 a0.4 0.4 0 1 0 -0.8 0Z M22.1 19.5 a0.4 0.4 0 1 0 0.8 0 a0.4 0.4 0 1 0 -0.8 0Z M13.1 20.5 a0.4 0.4 0 1 0 0.8 0 a0.4 0.4 0 1 0 -0.8 0Z M15.1 20.5 a0.4 0.4 0 1 0 0.8 0 a0.4 0.4 0 1 0 -0.8 0Z M22.1 20.5 a0.4 0.4 0 1 0 0.8 0 a0.4 0.4 0 1 0 -0.8 0Z M13.1 21.5 a0.4 0.4 0 1 0 0.8 0 a0.4 0.4 0 1 0 -0.8 0Z M14.1 21.5 a0.4 0.4 0 1 0 0.8 0 a0.4 0.4 0 1 0 -0.8 0Z M16.1 21.5 a0.4 0.4 0 1 0 0.8 0 a0.4 0.4 0 1 0 -0.8 0Z M17.1 21.5 a0.4 0.4 0 1 0 0.8 0 a0.4 0.4 0 1 0 -0.8 0Z M20.1 21.5 a0.4 0.4 0 1 0 0.8 0 a0.4 0.4 0 1 0 -0.8 0Z M15.1 22.5 a0.4 0.4 0 1 0 0.8 0 a0.4 0.4 0 1 0 -0.8 0Z M17.1 22.5 a0.4 0.4 0 1 0 0.8 0 a0.4 0.4 0 1 0 -0.8 0Z M19.1 22.5 a0.4 0.4 0 1 0 0.8 0 a0.4 0.4 0 1 0 -0.8 0Z M21.1 22.5 a0.4 0.4 0 1 0 0.8 0 a0.4 0.4 0 1 0 -0.8 0Z M23.1 22.5 a0.4 0.4 0 1 0 0.8 0 a0.4 0.4 0 1 0 -0.8 0Z M14.1 23.5 a0.4 0.4 0 1 0 0.8 0 a0.4 0.4 0 1 0 -0.8 0Z M15.1 23.5 a0.4 0.4 0 1 0 0.8 0 a0.4 0.4 0 1 0 -0.8 0Z M16.1 23.5 a0.4 0.4 0 1 0 0.8 0 a0.4 0.4 0 1 0 -0.8 0Z M18.1 23.5 a0.4 0.4 0 1 0 0.8 0 a0.4 0.4 0 1 0 -0.8 0Z M22.1 23.5 a0.4 0.4 0 1 0 0.8 0 a0.4 0.4 0 1 0 -0.8 0Z M24.1 23.5 a0.4 0.4 0 1 0 0.8 0 a0.4 0.4 0 1 0 -0.8 0Z M14.1 24.5 a0.4 0.4 0 1 0 0.8 0 a0.4 0.4 0 1 0 -0.8 0Z M16.1 24.5 a0.4 0.4 0 1 0 0.8 0 a0.4 0.4 0 1 0 -0.8 0Z M19.1 24.5 a0.4 0.4 0 1 0 0.8 0 a0.4 0.4 0 1 0 -0.8 0Z M23.1 24.5 a0.4 0.4 0 1 0 0.8 0 a0.4 0.4 0 1 0 -0.8 0Z M24.1 24.5 a0.4 0.4 0 1 0 0.8 0 a0.4 0.4 0 1 0 -0.8 0Z"/>
<path class="qr-finder light qrcode" fill="#fff" d="M5.1 5.5 a0.4 0.4 0 1 0 0.8 0 a0.4 0.4 0 1 0 -0.8 0Z M6.1 5.5 a0.4 0.4 0 1 0 0.8 0 a0.4 0.4 0 1 0 -0.8 0Z M7.1 5.5 a0.4 0.4 0 1 0 0.8 0 a0.4 0.4 0 1 0 -0.8 0Z M8.1 5.5 a0.4 0.4 0 1 0 0.8 0 a0.4 0.4 0 1 0 -0.8 0Z M9.1 5.5 a0.4 0.4 0 1 0 0.8 0 a0.4 0.4 0 1 0 -0.8 0Z M19.1 5.5 a0.4 0.4 0 1 0 0.8 0 a0.4 0.4 0 1 0 -0.8 0Z M20.1 5.5 a0.4 0.4 0 1 0 0.8 0 a0.4 0.4 0 1 0 -0.8 0Z M21.1 5.5 a0.4 0.4 0 1 0 0.8 0 a0.4 0.4 0 1 0 -0.8 0Z M22.1 5.5 a0.4 0.4 0 1 0 0.8 0 a0.4 0.4 0 1 0 -0.8 0Z M23.1 5.5 a0.4 0.4 0 1 0 0.8 0 a0.4 0.4 0 1 0 -0.8 0Z M5.1 6.5 a0.4 0.4 0 1 0 0.8 0 a0.4 0.4 0 1 0 -0.8 0Z M9.1 6.5 a0.4 0.4 0 1 0 0.8 0 a0.4 0.4 0 1 0 -0.8 0Z M19.1 6.5 a0.4 0.4 0 1 0 0.8 0 a0.4 0.4 0 1 0 -0.8 0Z M23.1 6.5 a0.4 0.4 0 1 0 0.8 0 a0.4 0.4 0 1 0 -0.8 0Z M5.1 7.5 a0.4 0.4 0 1 0 0.8 0 a0.4 0.4 0 1 0 -0.8 0Z M9.1 7.5 a0.4 0.4 0 1 0 0.8 0 a0.4 0.4 0 1 0 -0.8 0Z M19.1 7.5 a0.4 0.4 0 1 0 0.8 0 a0.4 0.4 0 1 0 -0.8 0Z M23.1 7.5 a0.4 0.4 0 1 0 0.8 0 a0.4 0.4 0 1 0 -0.8 0Z M5.1 8.5 a0.4 0.4 0 1 0 0.8 0 a0.4 0.4 0 1 0 -0.8 0Z M9.1 8.5 a0.4 0.4 0 1 0 0.8 0 a0.4 0.4 0 1 0 -0.8 0Z M19.1 8.5 a0.4 0.4 0 1 0 0.8 0 a0.4 0.4 0 1 0 -0.8 0Z M23.1 8.5 a0.4 0.4 0 1 0 0.8 0 a0.4 0.4 0 1 0 -0.8 0Z M5.1 9.5 a0.4 0.4 0 1 0 0.8 0 a0.4 0.4 0 1 0 -0.8 0Z M6.1 9.5 a0.4 0.4 0 1 0 0.8 0 a0.4 0.4 0 1 0 -0.8 0Z M7.1 9.5 a0.4 0.4 0 1 0 0.8 0 a0.4 0.4 0 1 0 -0.8 0Z M8.1 9.5 a0.4 0.4 0 1 0 0.8 0 a0.4 0.4 0 1 0 -0.8 0Z M9.1 9.5 a0.4 0.4 0 1 0 0.8 0 a0.4 0.4 0 1 0 -0.8 0Z M19.1 9.5 a0.4 0.4 0 1 0 0.8 0 a0.4 0.4 0 1 0 -0.8 0Z M20.1 9.5 a0.4 0.4 0 1 0 0.8 0 a0.4 0.4 0 1 0 -0.8 0Z M21.1 9.5 a0.4 0.4 0 1 0 0.8 0 a0.4 0.4 0 1 0 -0.8 0Z M22.1 9.5 a0.4 0.4 0 1 0 0.8 0 a0.4 0.4 0 1 0 -0.8 0Z M23.1 9.5 a0.4 0.4 0 1 0 0.8 0 a0.4 0.4 0 1 0 -0.8 0Z M5.1 19.5 a0.4 0.4 0 1 0 0.8 0 a0.4 0.4 0 1 0 -0.8 0Z M6.1 19.5 a0.4 0.4 0 1 0 0.8 0 a0.4 0.4 0 1 0 -0.8 0Z M7.1 19.5 a0.4 0.4 0 1 0 0.8 0 a0.4 0.4 0 1 0 -0.8 0Z M8.1 19.5 a0.4 0.4 0 1 0 0.8 0 a0.4 0.4 0 1 0 -0.8 0Z M9.1 19.5 a0.4 0.4 0 1 0 0.8 0 a0.4 0.4 0 1 0 -0.8 0Z M5.1 20.5 a0.4 0.4 0 1 0 0.8 0 a0.4 0.4 0 1 0 -0.8 0Z M9.1 20.5 a0.4 0.4 0 1 0 0.8 0 a0.4 0.4 0 1 0 -0.8 0Z M5.1 21.5 a0.4 0.4 0 1 0 0.8 0 a0.4 0.4 0 1 0 -0.8 0Z M9.1 21.5 a0.4 0.4 0 1 0 0.8 0 a0.4 0.4 0 1 0 -0.8 0Z M5.1 22.5 a0.4 0.4 0 1 0 0.8 0 a0.4 0.4 0 1 0 -0.8 0Z M9.1 22.5 a0.4 0.4 0 1 0 0.8 0 a0.4 0.4 0 1 0 -0.8 0Z M5.1 23.5 a0.4 0.4 0 1 0 0.8 0 a0.4 0.4 0 1 0 -0.8 0Z M6.1 23.5 a0.4 0.4 0 1 0 0.8 0 a0.4 0.4 0 1 0 -0.8 0Z M7.1 23.5 a0.4 0.4 0 1 0 0.8 0 a0.4 0.4 0 1 0 -0.8 0Z M8.1 23.5 a0.4 0.4 0 1 0 0.8 0 a0.4 0.4 0 1 0 -0.8 0Z M9.1 23.5 a0.4 0.4 0 1 0 0.8 0 a0.4 0.4 0 1 0 -0.8 0Z"/>
<path class="qr-separator light qrcode" fill="#fff" d="M11.1 4.5 a0.4 0.4 0 1 0 0.8 0 a0.4 0.4 0 1 0 -0.8 0Z M17.1 4.5 a0.4 0.4 0 1 0 0.8 0 a0.4 0.4 0 1 0 -0.8 0Z M11.1 5.5 a0.4 0.4 0 1 0 0.8 0 a0.4 0.4 0 1 0 -0.8 0Z M17.1 5.5 a0.4 0.4 0 1 0 0.8 0 a0.4 0.4 0 1 0 -0.8 0Z M11.1 6.5 a0.4 0.4 0 1 0 0.8 0 a0.4 0.4 0 1 0 -0.8 0Z M17.1 6.5 a0.4 0.4 0 1 0 0.8 0 a0.4 0.4 0 1 0 -0.8 0Z M11.1 7.5 a0.4 0.4 0 1 0 0.8 0 a0.4 0.4 0 1 0 -0.8 0Z M17.1 7.5 a0.4 0.4 0 1 0 0.8 0 a0.4 0.4 0 1 0 -0.8 0Z M11.1 8.5 a0.4 0.4 0 1 0 0.8 0 a0.4 0.4 0 1 0 -0.8 0Z M17.1 8.5 a0.4 0.4 0 1 0 0.8 0 a0.4 0.4 0 1 0 -0.8 0Z M11.1 9.5 a0.4 0.4 0 1 0 0.8 0 a0.4 0.4 0 1 0 -0.8 0Z M17.1 9.5 a0.4 0.4 0 1 0 0.8 0 a0.4 0.4 0 1 0 -0.8 0Z M11.1 10.5 a0.4 0.4 0 1 0 0.8 0 a0.4 0.4 0 1 0 -0.8 0Z M17.1 10.5 a0.4 0.4 0 1 0 0.8 0 a0.4 0.4 0 1 0 -0.8 0Z M4.1 11.5 a0.4 0.4 0 1 0 0.8 0 a0.4 0.4 0 1 0 -0.8 0Z M5.1 11.5 a0.4 0.4 0 1 0 0.8 0 a0.4 0.4 0 1 0 -0.8 0Z M6.1 11.5 a0.4 0.4 0 1 0 0.8 0 a0.4 0.4 0 1 0 -0.8 0Z M7.1 11.5 a0.4 0.4 0 1 0 0.8 0 a0.4 0.4 0 1 0 -0.8 0Z M8.1 11.5 a0.4 0.4 0 1 0 0.8 0 a0.4 0.4 0 1 0 -0.8 0Z M9.1 11.5 a0.4 0.4 0 1 0 0.8 0 a0.4 0.4 0 1 0 -0.8 0Z M10.1 11.5 a0.4 0.4 0 1 0 0.8 0 a0.4 0.4 0 1 0 -0.8 0Z M11.1 11.5 a0.4 0.4 0 1 0 0.8 0 a0.4 0.4 0 1 0 -0.8 0Z M17.1 11.5 a0.4 0.4 0 1 0 0.8 0 a0.4 0.4 0 1 0 -0.8 0Z M18.1 11.5 a0.4 0.4 0 1 0 0.8 0 a0.4 0.4 0 1 0 -0.8 0Z M19.1 11.5 a0.4 0.4 0 1 0 0.8 0 a0.4 0.4 0 1 0 -0.8 0Z M20.1 11.5 a0.4 0.4 0 1 0 0.8 0 a0.4 0.4 0 1 0 -0.8 0Z M21.1 11.5 a0.4 0.4 0 1 0 0.8 0 a0.4 0.4 0 1 0 -0.8 0Z M22.1 11.5 a0.4 0.4 0 1 0 0.8 0 a0.4 0.4 0 1 0 -0.8 0Z M23.1 11.5 a0.4 0.4 0 1 0 0.8 0 a0.4 0.4 0 1 0 -0.8 0Z M24.1 11.5 a0.4 0.4 0 1 0 0.8 0 a0.4 0.4 0 1 0 -0.8 0Z M4.1 17.5 a0.4 0.4 0 1 0 0.8 0 a0.4 0.4 0 1 0 -0.8 0Z M5.1 17.5 a0.4 0.4 0 1 0 0.8 0 a0.4 0.4 0 1 0 -0.8 0Z M6.1 17.5 a0.4 0.4 0 1 0 0.8 0 a0.4 0.4 0 1 0 -0.8 0Z M7.1 17.5 a0.4 0.4 0 1 0 0.8 0 a0.4 0.4 0 1 0 -0.8 0Z M8.1 17.5 a0.4 0.4 0 1 0 0.8 0 a0.4 0.4 0 1 0 -0.8 0Z M9.1 17.5 a0.4 0.4 0 1 0 0.8 0 a0.4 0.4 0 1 0 -0.8 0Z M10.1 17.5 a0.4 0.4 0 1 0 0.8 0 a0.4 0.4 0 1 0 -0.8 0Z M11.1 17.5 a0.4 0.4 0 1 0 0.8 0 a0.4 0.4 0 1 0 -0.8 0Z M11.1 18.5 a0.4 0.4 0 1 0 0.8 0 a0.4 0.4 0 1 0 -0.8 0Z M11.1 19.5 a0.4 0.4 0 1 0 0.8 0 a0.4 0.4 0 1 0 -0.8 0Z M11.1 20.5 a0.4 0.4 0 1 0 0.8 0 a0.4 0.4 0 1 0 -0.8 0Z M11.1 21.5 a0.4 0.4 0 1 0 0.8 0 a0.4 0.4 0 1 0 -0.8 0Z M11.1 22.5 a0.4 0.4 0 1 0 0.8 0 a0.4 0.4 0 1 0 -0.8 0Z M11.1 23.5 a0.4 0.4 0 1 0 0.8 0 a0.4 0.4 0 1 0 -0.8 0Z M11.1 24.5 a0.4 0.4 0 1 0 0.8 0 a0.4 0.4 0 1 0 -0.8 0Z"/>
<path class="qr-timing light qrcode" fill="#fff" d="M13.1 10.5 a0.4 0.4 0 1 0 0.8 0 a0.4 0.4 0 1 0 -0.8 0Z M15.1 10.5 a0.4 0.4 0 1 0 0.8 0 a0.4 0.4 0 1 0 -0.8 0Z M10.1 13.5 a0.4 0.4 0 1 0 0.8 0 a0.4 0.4 0 1 0 -0.8 0Z M10.1 15.5 a0.4 0.4 0 1 0 0.8 0 a0.4 0.4 0 1 0 -0.8 0Z"/>
<path class="qr-format light qrcode" fill="#fff" d="M12.1 6.5 a0.4 0.4 0 1 0 0.8 0 a0.4 0.4 0 1 0 -0.8 0Z M12.1 11.5 a0.4 0.4 0 1 0 0.8 0 a0.4 0.4 0 1 0 -0.8 0Z M4.1 12.5 a0.4 0.4 0 1 0 0.8 0 a0.4 0.4 0 1 0 -0.8 0Z M5.1 12.5 a0.4 0.4 0 1 0 0.8 0 a0.4 0.4 0 1 0 -0.8 0Z M6.1 12.5 a0.4 0.4 0 1 0 0.8 0 a0.4 0.4 0 1 0 -0.8 0Z M8.1 12.5 a0.4 0.4 0 1 0 0.8 0 a0.4 0.4 0 1 0 -0.8 0Z M9.1 12.5 a0.4 0.4 0 1 0 0.8 0 a0.4 0.4 0 1 0 -0.8 0Z M11.1 12.5 a0.4 0.4 0 1 0 0.8 0 a0.4 0.4 0 1 0 -0.8 0Z M17.1 12.5 a0.4 0.4 0 1 0 0.8 0 a0.4 0.4 0 1 0 -0.8 0Z M18.1 12.5 a0.4 0.4 0 1 0 0.8 0 a0.4 0.4 0 1 0 -0.8 0Z M22.1 12.5 a0.4 0.4 0 1 0 0.8 0 a0.4 0.4 0 1 0 -0.8 0Z M12.1 18.5 a0.4 0.4 0 1 0 0.8 0 a0.4 0.4 0 1 0 -0.8 0Z M12.1 19.5 a0.4 0.4 0 1 0 0.8 0 a0.4 0.4 0 1 0 -0.8 0Z M12.1 20.5 a0.4 0.4 0 1 0 0.8 0 a0.4 0.4 0 1 0 -0.8 0Z M12.1 22.5 a0.4 0.4 0 1 0 0.8 0 a0.4 0.4 0 1 0 -0.8 0Z M12.1 23.5 a0.4 0.4 0 1 0 0.8 0 a0.4 0.4 0 1 0 -0.8 0Z M12.1 24.5 a0.4 0.4 0 1 0 0.8 0 a0.4 0.4 0 1 0 -0.8 0Z"/>
<path class="qr-quietzone light qrcode" fill="#fff" d="M0.1 0.5 a0.4 0.4 0 1 0 0.8 0 a0.4 0.4 0 1 0 -0.8 0Z M1.1 0.5 a0.4 0.4 0 1 0 0.8 0 a0.4 0.4 0 1 0 -0.8 0Z M2.1 0.5 a0.4 0.4 0 1 0 0.8 0 a0.4 0.4 0 1 0 -0.8 0Z M3.1 0.5 a0.4 0.4 0 1 0 0.8 0 a0.4 0.4 0 1 0 -0.8 0Z M4.1 0.5 a0.4 0.4 0 1 0 0.8 0 a0.4 0.4 0 1 0 -0.8 0Z M5.1 0.5 a0.4 0.4 0 1 0 0.8 0 a0.4 0.4 0 1 0 -0.8 0Z M6.1 0.5 a0.4 0.4 0 1 0 0.8 0 a0.4 0.4 0 1 0 -0.8 0Z M7.1 0.5 a0.4 0.4 0 1 0 0.8 0 a0.4 0.4 0 1 0 -0.8 0Z M8.1 0.5 a0.4 0.4 0 1 0 0.8 0 a0.4 0.4 0 1 0 -0.8 0Z M9.1 0.5 a0.4 0.4 0 1 0 0.8 0 a0.4 0.4 0 1 0 -0.8 0Z M10.1 0.5 a0.4 0.4 0 1 0 0.8 0 a0.4 0.4 0 1 0 -0.8 0Z M11.1 0.5 a0.4 0.4 0 1 0 0.8 0 a0.4 0.4 0 1 0 -0.8 0Z M12.1 0.5 a0.4 0.4 0 1 0 0.8 0 a0.4 0.4 0 1 0 -0.8 0Z M13.1 0.5 a0.4 0.4 0 1 0 0.8 0 a0.4 0.4 0 1 0 -0.8 0Z M14.1 0.5 a0.4 0.4 0 1 0 0.8 0 a0.4 0.4 0 1 0 -0.8 0Z M15.1 0.5 a0.4 0.4 0 1 0 0.8 0 a0.4 0.4 0 1 0 -0.8 0Z M16.1 0.5 a0.4 0.4 0 1 0 0.8 0 a0.4 0.4 0 1 0 -0.8 0Z M17.1 0.5 a0.4 0.4 0 1 0 0.8 0 a0.4 0.4 0 1 0 -0.8 0Z M18.1 0.5 a0.4 0.4 0 1 0 0.8 0 a0.4 0.4 0 1 0 -0.8 0Z M19.1 0.5 a0.4 0.4 0 1 0 0.8 0 a0.4 0.4 0 1 0 -0.8 0Z M20.1 0.5 a0.4 0.4 0 1 0 0.8 0 a0.4 0.4 0 1 0 -0.8 0Z M21.1 0.5 a0.4 0.4 0 1 0 0.8 0 a0.4 0.4 0 1 0 -0.8 0Z M22.1 0.5 a0.4 0.4 0 1 0 0.8 0 a0.4 0.4 0 1 0 -0.8 0Z M23.1 0.5 a0.4 0.4 0 1 0 0.8 0 a0.4 0.4 0 1 0 -0.8 0Z M24.1 0.5 a0.4 0.4 0 1 0 0.8 0 a0.4 0.4 0 1 0 -0.8 0Z M25.1 0.5 a0.4 0.4 0 1 0 0.8 0 a0.4 0.4 0 1 0 -0.8 0Z M26.1 0.5 a0.4 0.4 0 1 0 0.8 0 a0.4 0.4 0 1 0 -0.8 0Z M27.1 0.5 a0.4 0.4 0 1 0 0.8 0 a0.4 0.4 0 1 0 -0.8 0Z M28.1 0.5 a0.4 0.4 0 1 0 0.8 0 a0.4 0.4 0 1 0 -0.8 0Z M0.1 1.5 a0.4 0.4 0 1 0 0.8 0 a0.4 0.4 0 1 0 -0.8 0Z M1.1 1.5 a0.4 0.4 0 1 0 0.8 0 a0.4 0.4 0 1 0 -0.8 0Z M2.1 1.5 a0.4 0.4 0 1 0 0.8 0 a0.4 0.4 0 1 0 -0.8 0Z M3.1 1.5 a0.4 0.4 0 1 0 0.8 0 a0.4 0.4 0 1 0 -0.8 0Z M4.1 1.5 a0.4 0.4 0 1 0 0.8 0 a0.4 0.4 0 1 0 -0.8 0Z M5.1 1.5 a0.4 0.4 0 1 0 0.8 0 a0.4 0.4 0 1 0 -0.8 0Z M6.1 1.5 a0.4 0.4 0 1 0 0.8 0 a0.4 0.4 0 1 0 -0.8 0Z M7.1 1.5 a0.4 0.4 0 1 0 0.8 0 a0.4 0.4 0 1 0 -0.8 0Z M8.1 1.5 a0.4 0.4 0 1 0 0.8 0 a0.4 0.4 0 1 0 -0.8 0Z M9.1 1.5 a0.4 0.4 0 1 0 0.8 0 a0.4 0.4 0 1 0 -0.8 0Z M10.1 1.5 a0.4 0.4 0 1 0 0.8 0 a0.4 0.4 0 1 0 -0.8 0Z M11.1 1.5 a0.4 0.4 0 1 0 0.8 0 a0.4 0.4 0 1 0 -0.8 0Z M12.1 1.5 a0.4 0.4 0 1 0 0.8 0 a0.4 0.4 0 1 0 -0.8 0Z M13.1 1.5 a0.4 0.4 0 1 0 0.8 0 a0.4 0.4 0 1 0 -0.8 0Z M14.1 1.5 a0.4 0.4 0 1 0 0.8 0 a0.4 0.4 0 1 0 -0.8 0Z M15.1 1.5 a0.4 0.4 0 1 0 0.8 0 a0.4 0.4 0 1 0 -0.8 0Z M16.1 1.5 a0.4 0.4 0 1 0 0.8 0 a0.4 0.4 0 1 0 -0.8 0Z M17.1 1.5 a0.4 0.4 0 1 0 0.8 0 a0.4 0.4 0 1 0 -0.8 0Z M18.1 1.5 a0.4 0.4 0 1 0 0.8 0 a0.4 0.4 0 1 0 -0.8 0Z M19.1 1.5 a0.4 0.4 0 1 0 0.8 0 a0.4 0.4 0 1 0 -0.8 0Z M20.1 1.5 a0.4 0.4 0 1 0 0.8 0 a0.4 0.4 0 1 0 -0.8 0Z M21.1 1.5 a0.4 0.4 0 1 0 0.8 0 a0.4 0.4 0 1 0 -0.8 0Z M22.1 1.5 a0.4 0.4 0 1 0 0.8 0 a0.4 0.4 0 1 0 -0.8 0Z M23.1 1.5 a0.4 0.4 0 1 0 0.8 0 a0.4 0.4 0 1 0 -0.8 0Z M24.1 1.5 a0.4 0.4 0 1 0 0.8 0 a0.4 0.4 0 1 0 -0.8 0Z M25.1 1.5 a0.4 0.4 0 1 0 0.8 0 a0.4 0.4 0 1 0 -0.8 0Z M26.1 1.5 a0.4 0.4 0 1 0 0.8 0 a0.4 0.4 0 1 0 -0.8 0Z M27.1 1.5 a0.4 0.4 0 1 0 0.8 0 a0.4 0.4 0 1 0 -0.8 0Z M28.1 1.5 a0.4 0.4 0 1 0 0.8 0 a0.4 0.4 0 1 0 -0.8 0Z M0.1 2.5 a0.4 0.4 0 1 0 0.8 0 a0.4 0.4 0 1 0 -0.8 0Z M1.1 2.5 a0.4 0.4 0 1 0 0.8 0 a0.4 0.4 0 1 0 -0.8 0Z M2.1 2.5 a0.4 0.4 0 1 0 0.8 0 a0.4 0.4 0 1 0 -0.8 0Z M3.1 2.5 a0.4 0.4 0 1 0 0.8 0 a0.4 0.4 0 1 0 -0.8 0Z M4.1 2.5 a0.4 0.4 0 1 0 0.8 0 a0.4 0.4 0 1 0 -0.8 0Z M5.1 2.5 a0.4 0.4 0 1 0 0.8 0 a0.4 0.4 0 1 0 -0.8 0Z M6.1 2.5 a0.4 0.4 0 1 0 0.8 0 a0.4 0.4 0 1 0 -0.8 0Z M7.1 2.5 a0.4 0.4 0 1 0 0.8 0 a0.4 0.4 0 1 0 -0.8 0Z M8.1 2.5 a0.4 0.4 0 1 0 0.8 0 a0.4 0.4 0 1 0 -0.8 0Z M9.1 2.5 a0.4 0.4 0 1 0 0.8 0 a0.4 0.4 0 1 0 -0.8 0Z M10.1 2.5 a0.4 0.4 0 1 0 0.8 0 a0.4 0.4 0 1 0 -0.8 0Z M11.1 2.5 a0.4 0.4 0 1 0 0.8 0 a0.4 0.4 0 1 0 -0.8 0Z M12.1 2.5 a0.4 0.4 0 1 0 0.8 0 a0.4 0.4 0 1 0 -0.8 0Z M13.1 2.5 a0.4 0.4 0 1 0 0.8 0 a0.4 0.4 0 1 0 -0.8 0Z M14.1 2.5 a0.4 0.4 0 1 0 0.8 0 a0.4 0.4 0 1 0 -0.8 0Z M15.1 2.5 a0.4 0.4 0 1 0 0.8 0 a0.4 0.4 0 1 0 -0.8 0Z M16.1 2.5 a0.4 0.4 0 1 0 0.8 0 a0.4 0.4 0 1 0 -0.8 0Z M17.1 2.5 a0.4 0.4 0 1 0 0.8 0 a0.4 0.4 0 1 0 -0.8 0Z M18.1 2.5 a0.4 0.4 0 1 0 0.8 0 a0.4 0.4 0 1 0 -0.8 0Z M19.1 2.5 a0.4 0.4 0 1 0 0.8 0 a0.4 0.4 0 1 0 -0.8 0Z M20.1 2.5 a0.4 0.4 0 1 0 0.8 0 a0.4 0.4 0 1 0 -0.8 0Z M21.1 2.5 a0.4 0.4 0 1 0 0.8 0 a0.4 0.4 0 1 0 -0.8 0Z M22.1 2.5 a0.4 0.4 0 1 0 0.8 0 a0.4 0.4 0 1 0 -0.8 0Z M23.1 2.5 a0.4 0.4 0 1 0 0.8 0 a0.4 0.4 0 1 0 -0.8 0Z M24.1 2.5 a0.4 0.4 0 1 0 0.8 0 a0.4 0.4 0 1 0 -0.8 0Z M25.1 2.5 a0.4 0.4 0 1 0 0.8 0 a0.4 0.4 0 1 0 -0.8 0Z M26.1 2.5 a0.4 0.4 0 1 0 0.8 0 a0.4 0.4 0 1 0 -0.8 0Z M27.1 2.5 a0.4 0.4 0 1 0 0.8 0 a0.4 0.4 0 1 0 -0.8 0Z M28.1 2.5 a0.4 0.4 0 1 0 0.8 0 a0.4 0.4 0 1 0 -0.8 0Z M0.1 3.5 a0.4 0.4 0 1 0 0.8 0 a0.4 0.4 0 1 0 -0.8 0Z M1.1 3.5 a0.4 0.4 0 1 0 0.8 0 a0.4 0.4 0 1 0 -0.8 0Z M2.1 3.5 a0.4 0.4 0 1 0 0.8 0 a0.4 0.4 0 1 0 -0.8 0Z M3.1 3.5 a0.4 0.4 0 1 0 0.8 0 a0.4 0.4 0 1 0 -0.8 0Z M4.1 3.5 a0.4 0.4 0 1 0 0.8 0 a0.4 0.4 0 1 0 -0.8 0Z M5.1 3.5 a0.4 0.4 0 1 0 0.8 0 a0.4 0.4 0 1 0 -0.8 0Z M6.1 3.5 a0.4 0.4 0 1 0 0.8 0 a0.4 0.4 0 1 0 -0.8 0Z M7.1 3.5 a0.4 0.4 0 1 0 0.8 0 a0.4 0.4 0 1 0 -0.8 0Z M8.1 3.5 a0.4 0.4 0 1 0 0.8 0 a0.4 0.4 0 1 0 -0.8 0Z M9.1 3.5 a0.4 0.4 0 1 0 0.8 0 a0.4 0.4 0 1 0 -0.8 0Z M10.1 3.5 a0.4 0.4 0 1 0 0.8 0 a0.4 0.4 0 1 0 -0.8 0Z M11.1 3.5 a0.4 0.4 0 1 0 0.8 0 a0.4 0.4 0 1 0 -0.8 0Z M12.1 3.5 a0.4 0.4 0 1 0 0.8 0 a0.4 0.4 0 1 0 -0.8 0Z
M13.1 3.5 a0.4 0.4 0 1 0 0.8 0 a0.4 0.4 0 1 0 -0.8 0Z M14.1 3.5 a0.4 0.4 0 1 0 0.8 0 a0.4 0.4 0 1 0 -0.8 0Z M15.1 3.5 a0.4 0.4 0 1 0 0.8 0 a0.4 0.4 0 1 0 -0.8 0Z M16.1 3.5 a0.4 0.4 0 1 0 0.8 0 a0.4 0.4 0 1 0 -0.8 0Z M17.1 3.5 a0.4 0.4 0 1 0 0.8 0 a0.4 0.4 0 1 0 -0.8 0Z M18.1 3.5 a0.4 0.4 0 1 0 0.8 0 a0.4 0.4 0 1 0 -0.8 0Z M19.1 3.5 a0.4 0.4 0 1 0 0.8 0 a0.4 0.4 0 1 0 -0.8 0Z M20.1 3.5 a0.4 0.4 0 1 0 0.8 0 a0.4 0.4 0 1 0 -0.8 0Z M21.1 3.5 a0.4 0.4 0 1 0 0.8 0 a0.4 0.4 0 1 0 -0.8 0Z M22.1 3.5 a0.4 0.4 0 1 0 0.8 0 a0.4 0.4 0 1 0 -0.8 0Z M23.1 3.5 a0.4 0.4 0 1 0 0.8 0 a0.4 0.4 0 1 0 -0.8 0Z M24.1 3.5 a0.4 0.4 0 1 0 0.8 0 a0.4 0.4 0 1 0 -0.8 0Z M25.1 3.5 a0.4 0.4 0 1 0 0.8 0 a0.4 0.4 0 1 0 -0.8 0Z M26.1 3.5 a0.4 0.4 0 1 0 0.8 0 a0.4 0.4 0 1 0 -0.8 0Z M27.1 3.5 a0.4 0.4 0 1 0 0.8 0 a0.4 0.4 0 1 0 -0.8 0Z M28.1 3.5 a0.4 0.4 0 1 0 0.8 0 a0.4 0.4 0 1 0 -0.8 0Z M0.1 4.5 a0.4 0.4 0 1 0 0.8 0 a0.4 0.4 0 1 0 -0.8 0Z M1.1 4.5 a0.4 0.4 0 1 0 0.8 0 a0.4 0.4 0 1 0 -0.8 0Z M2.1 4.5 a0.4 0.4 0 1 0 0.8 0 a0.4 0.4 0 1 0 -0.8 0Z M3.1 4.5 a0.4 0.4 0 1 0 0.8 0 a0.4 0.4 0 1 0 -0.8 0Z M25.1 4.5 a0.4 0.4 0 1 0 0.8 0 a0.4 0.4 0 1 0 -0.8 0Z M26.1 4.5 a0.4 0.4 0 1 0 0.8 0 a0.4 0.4 0 1 0 -0.8 0Z M27.1 4.5 a0.4 0.4 0 1 0 0.8 0 a0.4 0.4 0 1 0 -0.8 0Z M28.1 4.5 a0.4 0.4 0 1 0 0.8 0 a0.4 0.4 0 1 0 -0.8 0Z M0.1 5.5 a0.4 0.4 0 1 0 0.8 0 a0.4 0.4 0 1 0 -0.8 0Z M1.1 5.5 a0.4 0.4 0 1 0 0.8 0 a0.4 0.4 0 1 0 -0.8 0Z M2.1 5.5 a0.4 0.4 0 1 0 0.8 0 a0.4 0.4 0 1 0 -0.8 0Z M3.1 5.5 a0.4 0.4 0 1 0 0.8 0 a0.4 0.4 0 1 0 -0.8 0Z M25.1 5.5 a0.4 0.4 0 1 0 0.8 0 a0.4 0.4 0 1 0 -0.8 0Z M26.1 5.5 a0.4 0.4 0 1 0 0.8 0 a0.4 0.4 0 1 0 -0.8 0Z M27.1 5.5 a0.4 0.4 0 1 0 0.8 0 a0.4 0.4 0 1 0 -0.8 0Z M28.1 5.5 a0.4 0.4 0 1 0 0.8 0 a0.4 0.4 0 1 0 -0.8 0Z M0.1 6.5 a0.4 0.4 0 1 0 0.8 0 a0.4 0.4 0 1 0 -0.8 0Z M1.1 6.5 a0.4 0.4 0 1 0 0.8 0 a0.4 0.4 0 1 0 -0.8 0Z M2.1 6.5 a0.4 0.4 0 1 0 0.8 0 a0.4 0.4 0 1 0 -0.8 0Z M3.1 6.5 a0.4 0.4 0 1 0 0.8 0 a0.4 0.4 0 1 0 -0.8 0Z M25.1 6.5 a0.4 0.4 0 1 0 0.8 0 a0.4 0.4 0 1 0 -0.8 0Z M26.1 6.5 a0.4 0.4 0 1 0 0.8 0 a0.4 0.4 0 1 0 -0.8 0Z M27.1 6.5 a0.4 0.4 0 1 0 0.8 0 a0.4 0.4 0 1 0 -0.8 0Z M28.1 6.5 a0.4 0.4 0 1 0 0.8 0 a0.4 0.4 0 1 0 -0.8 0Z M0.1 7.5 a0.4 0.4 0 1 0 0.8 0 a0.4 0.4 0 1 0 -0.8 0Z M1.1 7.5 a0.4 0.4 0 1 0 0.8 0 a0.4 0.4 0 1 0 -0.8 0Z M2.1 7.5 a0.4 0.4 0 1 0 0.8 0 a0.4 0.4 0 1 0 -0.8 0Z M3.1 7.5 a0.4 0.4 0 1 0 0.8 0 a0.4 0.4 0 1 0 -0.8 0Z M25.1 7.5 a0.4 0.4 0 1 0 0.8 0 a0.4 0.4 0 1 0 -0.8 0Z M26.1 7.5 a0.4 0.4 0 1 0 0.8 0 a0.4 0.4 0 1 0 -0.8 0Z M27.1 7.5 a0.4 0.4 0 1 0 0.8 0 a0.4 0.4 0 1 0 -0.8 0Z M28.1 7.5 a0.4 0.4 0 1 0 0.8 0 a0.4 0.4 0 1 0 -0.8 0Z M0.1 8.5 a0.4 0.4 0 1 0 0.8 0 a0.4 0.4 0 1 0 -0.8 0Z M1.1 8.5 a0.4 0.4 0 1 0 0.8 0 a0.4 0.4 0 1 0 -0.8 0Z M2.1 8.5 a0.4 0.4 0 1 0 0.8 0 a0.4 0.4 0 1 0 -0.8 0Z M3.1 8.5 a0.4 0.4 0 1 0 0.8 0 a0.4 0.4 0 1 0 -0.8 0Z M25.1 8.5 a0.4 0.4 0 1 0 0.8 0 a0.4 0.4 0 1 0 -0.8 0Z M26.1 8.5 a0.4 0.4 0 1 0 0.8 0 a0.4 0.4 0 1 0 -0.8 0Z M27.1 8.5 a0.4 0.4 0 1 0 0.8 0 a0.4 0.4 0 1 0 -0.8 0Z M28.1 8.5 a0.4 0.4 0 1 0 0.8 0 a0.4 0.4 0 1 0 -0.8 0Z M0.1 9.5 a0.4 0.4 0 1 0 0.8 0 a0.4 0.4 0 1 0 -0.8 0Z M1.1 9.5 a0.4 0.4 0 1 0 0.8 0 a0.4 0.4 0 1 0 -0.8 0Z M2.1 9.5 a0.4 0.4 0 1 0 0.8 0 a0.4 0.4 0 1 0 -0.8 0Z M3.1 9.5 a0.4 0.4 0 1 0 0.8 0 a0.4 0.4 0 1 0 -0.8 0Z M25.1 9.5 a0.4 0.4 0 1 0 0.8 0 a0.4 0.4 0 1 0 -0.8 0Z M26.1 9.5 a0.4 0.4 0 1 0 0.8 0 a0.4 0.4 0 1 0 -0.8 0Z M27.1 9.5 a0.4 0.4 0 1 0 0.8 0 a0.4 0.4 0 1 0 -0.8 0Z M28.1 9.5 a0.4 0.4 0 1 0 0.8 0 a0.4 0.4 0 1 0 -0.8 0Z M0.1 10.5 a0.4 0.4 0 1 0 0.8 0 a0.4 0.4 0 1 0 -0.8 0Z M1.1 10.5 a0.4 0.4 0 1 0 0.8 0 a0.4 0.4 0 1 0 -0.8 0Z M2.1 10.5 a0.4 0.4 0 1 0 0.8 0 a0.4 0.4 0 1 0 -0.8 0Z M3.1 10.5 a0.4 0.4 0 1 0 0.8 0 a0.4 0.4 0 1 0 -0.8 0Z M25.1 10.5 a0.4 0.4 0 1 0 0.8 0 a0.4 0.4 0 1 0 -0.8 0Z M26.1 10.5 a0.4 0.4 0 1 0 0.8 0 a0.4 0.4 0 1 0 -0.8 0Z M27.1 10.5 a0.4 0.4 0 1 0 0.8 0 a0.4 0.4 0 1 0 -0.8 0Z M28.1 10.5 a0.4 0.4 0 1 0 0.8 0 a0.4 0.4 0 1 0 -0.8 0Z M0.1 11.5 a0.4 0.4 0 1 0 0.8 0 a0.4 0.4 0 1 0 -0.8 0Z M1.1 11.5 a0.4 0.4 0 1 0 0.8 0 a0.4 0.4 0 1 0 -0.8 0Z M2.1 11.5 a0.4 0.4 0 1 0 0.8 0 a0.4 0.4 0 1 0 -0.8 0Z M3.1 11.5 a0.4 0.4 0 1 0 0.8 0 a0.4 0.4 0 1 0 -0.8 0Z M25.1 11.5 a0.4 0.4 0 1 0 0.8 0 a0.4 0.4 0 1 0 -0.8 0Z M26.1 11.5 a0.4 0.4 0 1 0 0.8 0 a0.4 0.4 0 1 0 -0.8 0Z M27.1 11.5 a0.4 0.4 0 1 0 0.8 0 a0.4 0.4 0 1 0 -0.8 0Z M28.1 11.5 a0.4 0.4 0 1 0 0.8 0 a0.4 0.4 0 1 0 -0.8 0Z M0.1 12.5 a0.4 0.4 0 1 0 0.8 0 a0.4 0.4 0 1 0 -0.8 0Z M1.1 12.5 a0.4 0.4 0 1 0 0.8 0 a0.4 0.4 0 1 0 -0.8 0Z M2.1 12.5 a0.4 0.4 0 1 0 0.8 0 a0.4 0.4 0 1 0 -0.8 0Z M3.1 12.5 a0.4 0.4 0 1 0 0.8 0 a0.4 0.4 0 1 0 -0.8 0Z M25.1 12.5 a0.4 0.4 0 1 0 0.8 0 a0.4 0.4 0 1 0 -0.8 0Z M26.1 12.5 a0.4 0.4 0 1 0 0.8 0 a0.4 0.4 0 1 0 -0.8 0Z M27.1 12.5 a0.4 0.4 0 1 0 0.8 0 a0.4 0.4 0 1 0 -0.8 0Z M28.1 12.5 a0.4 0.4 0 1 0 0.8 0 a0.4 0.4 0 1 0 -0.8 0Z M0.1 13.5 a0.4 0.4 0 1 0 0.8 0 a0.4 0.4 0 1 0 -0.8 0Z M1.1 13.5 a0.4 0.4 0 1 0 0.8 0 a0.4 0.4 0 1 0 -0.8 0Z M2.1 13.5 a0.4 0.4 0 1 0 0.8 0 a0.4 0.4 0 1 0 -0.8 0Z M3.1 13.5 a0.4 0.4 0 1 0 0.8 0 a0.4 0.4 0 1 0 -0.8 0Z M25.1 13.5 a0.4 0.4 0 1 0 0.8 0 a0.4 0.4 0 1 0 -0.8 0Z M26.1 13.5 a0.4 0.4 0 1 0 0.8 0 a0.4 0.4 0 1 0 -0.8 0Z M27.1 13.5 a0.4 0.4 0 1 0 0.8 0 a0.4 0.4 0 1 0 -0.8 0Z M28.1 13.5 a0.4 0.4 0 1 0 0.8 0 a0.4 0.4 0 1 0 -0.8 0Z M0.1 14.5 a0.4 0.4 0 1 0 0.8 0 a0.4 0.4 0 1 0 -0.8 0Z M1.1 14.5 a0.4 0.4 0 1 0 0.8 0 a0.4 0.4 0 1 0 -0.8 0Z M2.1 14.5 a0.4 0.4 0 1 0 0.8 0 a0.4 0.4 0 1 0 -0.8 0Z M3.1 14.5 a0.4 0.4 0 1 0 0.8 0 a0.4 0.4 0 1 0 -0.8 0Z
M25.1 14.5 a0.4 0.4 0 1 0 0.8 0 a0.4 0.4 0 1 0 -0.8 0Z M26.1 14.5 a0.4 0.4 0 1 0 0.8 0 a0.4 0.4 0 1 0 -0.8 0Z M27.1 14.5 a0.4 0.4 0 1 0 0.8 0 a0.4 0.4 0 1 0 -0.8 0Z M28.1 14.5 a0.4 0.4 0 1 0 0.8 0 a0.4 0.4 0 1 0 -0.8 0Z M0.1 15.5 a0.4 0.4 0 1 0 0.8 0 a0.4 0.4 0 1 0 -0.8 0Z M1.1 15.5 a0.4 0.4 0 1 0 0.8 0 a0.4 0.4 0 1 0 -0.8 0Z M2.1 15.5 a0.4 0.4 0 1 0 0.8 0 a0.4 0.4 0 1 0 -0.8 0Z M3.1 15.5 a0.4 0.4 0 1 0 0.8 0 a0.4 0.4 0 1 0 -0.8 0Z M25.1 15.5 a0.4 0.4 0 1 0 0.8 0 a0.4 0.4 0 1 0 -0.8 0Z M26.1 15.5 a0.4 0.4 0 1 0 0.8 0 a0.4 0.4 0 1 0 -0.8 0Z M27.1 15.5 a0.4 0.4 0 1 0 0.8 0 a0.4 0.4 0 1 0 -0.8 0Z M28.1 15.5 a0.4 0.4 0 1 0 0.8 0 a0.4 0.4 0 1 0 -0.8 0Z M0.1 16.5 a0.4 0.4 0 1 0 0.8 0 a0.4 0.4 0 1 0 -0.8 0Z M1.1 16.5 a0.4 0.4 0 1 0 0.8 0 a0.4 0.4 0 1 0 -0.8 0Z M2.1 16.5 a0.4 0.4 0 1 0 0.8 0 a0.4 0.4 0 1 0 -0.8 0Z M3.1 16.5 a0.4 0.4 0 1 0 0.8 0 a0.4 0.4 0 1 0 -0.8 0Z M25.1 16.5 a0.4 0.4 0 1 0 0.8 0 a0.4 0.4 0 1 0 -0.8 0Z M26.1 16.5 a0.4 0.4 0 1 0 0.8 0 a0.4 0.4 0 1 0 -0.8 0Z M27.1 16.5 a0.4 0.4 0 1 0 0.8 0 a0.4 0.4 0 1 0 -0.8 0Z M28.1 16.5 a0.4 0.4 0 1 0 0.8 0 a0.4 0.4 0 1 0 -0.8 0Z M0.1 17.5 a0.4 0.4 0 1 0 0.8 0 a0.4 0.4 0 1 0 -0.8 0Z M1.1 17.5 a0.4 0.4 0 1 0 0.8 0 a0.4 0.4 0 1 0 -0.8 0Z M2.1 17.5 a0.4 0.4 0 1 0 0.8 0 a0.4 0.4 0 1 0 -0.8 0Z M3.1 17.5 a0.4 0.4 0 1 0 0.8 0 a0.4 0.4 0 1 0 -0.8 0Z M25.1 17.5 a0.4 0.4 0 1 0 0.8 0 a0.4 0.4 0 1 0 -0.8 0Z M26.1 17.5 a0.4 0.4 0 1 0 0.8 0 a0.4 0.4 0 1 0 -0.8 0Z M27.1 17.5 a0.4 0.4 0 1 0 0.8 0 a0.4 0.4 0 1 0 -0.8 0Z M28.1 17.5 a0.4 0.4 0 1 0 0.8 0 a0.4 0.4 0 1 0 -0.8 0Z M0.1 18.5 a0.4 0.4 0 1 0 0.8 0 a0.4 0.4 0 1 0 -0.8 0Z M1.1 18.5 a0.4 0.4 0 1 0 0.8 0 a0.4 0.4 0 1 0 -0.8 0Z M2.1 18.5 a0.4 0.4 0 1 0 0.8 0 a0.4 0.4 0 1 0 -0.8 0Z M3.1 18.5 a0.4 0.4 0 1 0 0.8 0 a0.4 0.4 0 1 0 -0.8 0Z M25.1 18.5 a0.4 0.4 0 1 0 0.8 0 a0.4 0.4 0 1 0 -0.8 0Z M26.1 18.5 a0.4 0.4 0 1 0 0.8 0 a0.4 0.4 0 1 0 -0.8 0Z M27.1 18.5 a0.4 0.4 0 1 0 0.8 0 a0.4 0.4 0 1 0 -0.8 0Z M28.1 18.5 a0.4 0.4 0 1 0 0.8 0 a0.4 0.4 0 1 0 -0.8 0Z M0.1 19.5 a0.4 0.4 0 1 0 0.8 0 a0.4 0.4 0 1 0 -0.8 0Z M1.1 19.5 a0.4 0.4 0 1 0 0.8 0 a0.4 0.4 0 1 0 -0.8 0Z M2.1 19.5 a0.4 0.4 0 1 0 0.8 0 a0.4 0.4 0 1 0 -0.8 0Z M3.1 19.5 a0.4 0.4 0 1 0 0.8 0 a0.4 0.4 0 1 0 -0.8 0Z M25.1 19.5 a0.4 0.4 0 1 0 0.8 0 a0.4 0.4 0 1 0 -0.8 0Z M26.1 19.5 a0.4 0.4 0 1 0 0.8 0 a0.4 0.4 0 1 0 -0.8 0Z M27.1 19.5 a0.4 0.4 0 1 0 0.8 0 a0.4 0.4 0 1 0 -0.8 0Z M28.1 19.5 a0.4 0.4 0 1 0 0.8 0 a0.4 0.4 0 1 0 -0.8 0Z M0.1 20.5 a0.4 0.4 0 1 0 0.8 0 a0.4 0.4 0 1 0 -0.8 0Z M1.1 20.5 a0.4 0.4 0 1 0 0.8 0 a0.4 0.4 0 1 0 -0.8 0Z M2.1 20.5 a0.4 0.4 0 1 0 0.8 0 a0.4 0.4 0 1 0 -0.8 0Z M3.1 20.5 a0.4 0.4 0 1 0 0.8 0 a0.4 0.4 0 1 0 -0.8 0Z M25.1 20.5 a0.4 0.4 0 1 0 0.8 0 a0.4 0.4 0 1 0 -0.8 0Z M26.1 20.5 a0.4 0.4 0 1 0 0.8 0 a0.4 0.4 0 1 0 -0.8 0Z M27.1 20.5 a0.4 0.4 0 1 0 0.8 0 a0.4 0.4 0 1 0 -0.8 0Z M28.1 20.5 a0.4 0.4 0 1 0 0.8 0 a0.4 0.4 0 1 0 -0.8 0Z M0.1 21.5 a0.4 0.4 0 1 0 0.8 0 a0.4 0.4 0 1 0 -0.8 0Z M1.1 21.5 a0.4 0.4 0 1 0 0.8 0 a0.4 0.4 0 1 0 -0.8 0Z M2.1 21.5 a0.4 0.4 0 1 0 0.8 0 a0.4 0.4 0 1 0 -0.8 0Z M3.1 21.5 a0.4 0.4 0 1 0 0.8 0 a0.4 0.4 0 1 0 -0.8 0Z M25.1 21.5 a0.4 0.4 0 1 0 0.8 0 a0.4 0.4 0 1 0 -0.8 0Z M26.1 21.5 a0.4 0.4 0 1 0 0.8 0 a0.4 0.4 0 1 0 -0.8 0Z M27.1 21.5 a0.4 0.4 0 1 0 0.8 0 a0.4 0.4 0 1 0 -0.8 0Z M28.1 21.5 a0.4 0.4 0 1 0 0.8 0 a0.4 0.4 0 1 0 -0.8 0Z M0.1 22.5 a0.4 0.4 0 1 0 0.8 0 a0.4 0.4 0 1 0 -0.8 0Z M1.1 22.5 a0.4 0.4 0 1 0 0.8 0 a0.4 0.4 0 1 0 -0.8 0Z M2.1 22.5 a0.4 0.4 0 1 0 0.8 0 a0.4 0.4 0 1 0 -0.8 0Z M3.1 22.5 a0.4 0.4 0 1 0 0.8 0 a0.4 0.4 0 1 0 -0.8 0Z M25.1 22.5 a0.4 0.4 0 1 0 0.8 0 a0.4 0.4 0 1 0 -0.8 0Z M26.1 22.5 a0.4 0.4 0 1 0 0.8 0 a0.4 0.4 0 1 0 -0.8 0Z M27.1 22.5 a0.4 0.4 0 1 0 0.8 0 a0.4 0.4 0 1 0 -0.8 0Z M28.1 22.5 a0.4 0.4 0 1 0 0.8 0 a0.4 0.4 0 1 0 -0.8 0Z M0.1 23.5 a0.4 0.4 0 1 0 0.8 0 a0.4 0.4 0 1 0 -0.8 0Z M1.1 23.5 a0.4 0.4 0 1 0 0.8 0 a0.4 0.4 0 1 0 -0.8 0Z M2.1 23.5 a0.4 0.4 0 1 0 0.8 0 a0.4 0.4 0 1 0 -0.8 0Z M3.1 23.5 a0.4 0.4 0 1 0 0.8 0 a0.4 0.4 0 1 0 -0.8 0Z M25.1 23.5 a0.4 0.4 0 1 0 0.8 0 a0.4 0.4 0 1 0 -0.8 0Z M26.1 23.5 a0.4 0.4 0 1 0 0.8 0 a0.4 0.4 0 1 0 -0.8 0Z M27.1 23.5 a0.4 0.4 0 1 0 0.8 0 a0.4 0.4 0 1 0 -0.8 0Z M28.1 23.5 a0.4 0.4 0 1 0 0.8 0 a0.4 0.4 0 1 0 -0.8 0Z M0.1 24.5 a0.4 0.4 0 1 0 0.8 0 a0.4 0.4 0 1 0 -0.8 0Z M1.1 24.5 a0.4 0.4 0 1 0 0.8 0 a0.4 0.4 0 1 0 -0.8 0Z M2.1 24.5 a0.4 0.4 0 1 0 0.8 0 a0.4 0.4 0 1 0 -0.8 0Z M3.1 24.5 a0.4 0.4 0 1 0 0.8 0 a0.4 0.4 0 1 0 -0.8 0Z M25.1 24.5 a0.4 0.4 0 1 0 0.8 0 a0.4 0.4 0 1 0 -0.8 0Z M26.1 24.5 a0.4 0.4 0 1 0 0.8 0 a0.4 0.4 0 1 0 -0.8 0Z M27.1 24.5 a0.4 0.4 0 1 0 0.8 0 a0.4 0.4 0 1 0 -0.8 0Z M28.1 24.5 a0.4 0.4 0 1 0 0.8 0 a0.4 0.4 0 1 0 -0.8 0Z M0.1 25.5 a0.4 0.4 0 1 0 0.8 0 a0.4 0.4 0 1 0 -0.8 0Z M1.1 25.5 a0.4 0.4 0 1 0 0.8 0 a0.4 0.4 0 1 0 -0.8 0Z M2.1 25.5 a0.4 0.4 0 1 0 0.8 0 a0.4 0.4 0 1 0 -0.8 0Z M3.1 25.5 a0.4 0.4 0 1 0 0.8 0 a0.4 0.4 0 1 0 -0.8 0Z M4.1 25.5 a0.4 0.4 0 1 0 0.8 0 a0.4 0.4 0 1 0 -0.8 0Z M5.1 25.5 a0.4 0.4 0 1 0 0.8 0 a0.4 0.4 0 1 0 -0.8 0Z M6.1 25.5 a0.4 0.4 0 1 0 0.8 0 a0.4 0.4 0 1 0 -0.8 0Z M7.1 25.5 a0.4 0.4 0 1 0 0.8 0 a0.4 0.4 0 1 0 -0.8 0Z M8.1 25.5 a0.4 0.4 0 1 0 0.8 0 a0.4 0.4 0 1 0 -0.8 0Z M9.1 25.5 a0.4 0.4 0 1 0 0.8 0 a0.4 0.4 0 1 0 -0.8 0Z M10.1 25.5 a0.4 0.4 0 1 0 0.8 0 a0.4 0.4 0 1 0 -0.8 0Z M11.1 25.5 a0.4 0.4 0 1 0 0.8 0 a0.4 0.4 0 1 0 -0.8 0Z M12.1 25.5 a0.4 0.4 0 1 0 0.8 0 a0.4 0.4 0 1 0 -0.8 0Z M13.1 25.5 a0.4 0.4 0 1 0 0.8 0 a0.4 0.4 0 1 0 -0.8 0Z M14.1 25.5 a0.4 0.4 0 1 0 0.8 0 a0.4 0.4 0 1 0 -0.8 0Z M15.1 25.5 a0.4 0.4 0 1 0 0.8 0 a0.4 0.4 0 1 0 -0.8 0Z
M16.1 25.5 a0.4 0.4 0 1 0 0.8 0 a0.4 0.4 0 1 0 -0.8 0Z M17.1 25.5 a0.4 0.4 0 1 0 0.8 0 a0.4 0.4 0 1 0 -0.8 0Z M18.1 25.5 a0.4 0.4 0 1 0 0.8 0 a0.4 0.4 0 1 0 -0.8 0Z M19.1 25.5 a0.4 0.4 0 1 0 0.8 0 a0.4 0.4 0 1 0 -0.8 0Z M20.1 25.5 a0.4 0.4 0 1 0 0.8 0 a0.4 0.4 0 1 0 -0.8 0Z M21.1 25.5 a0.4 0.4 0 1 0 0.8 0 a0.4 0.4 0 1 0 -0.8 0Z M22.1 25.5 a0.4 0.4 0 1 0 0.8 0 a0.4 0.4 0 1 0 -0.8 0Z M23.1 25.5 a0.4 0.4 0 1 0 0.8 0 a0.4 0.4 0 1 0 -0.8 0Z M24.1 25.5 a0.4 0.4 0 1 0 0.8 0 a0.4 0.4 0 1 0 -0.8 0Z M25.1 25.5 a0.4 0.4 0 1 0 0.8 0 a0.4 0.4 0 1 0 -0.8 0Z M26.1 25.5 a0.4 0.4 0 1 0 0.8 0 a0.4 0.4 0 1 0 -0.8 0Z M27.1 25.5 a0.4 0.4 0 1 0 0.8 0 a0.4 0.4 0 1 0 -0.8 0Z M28.1 25.5 a0.4 0.4 0 1 0 0.8 0 a0.4 0.4 0 1 0 -0.8 0Z M0.1 26.5 a0.4 0.4 0 1 0 0.8 0 a0.4 0.4 0 1 0 -0.8 0Z M1.1 26.5 a0.4 0.4 0 1 0 0.8 0 a0.4 0.4 0 1 0 -0.8 0Z M2.1 26.5 a0.4 0.4 0 1 0 0.8 0 a0.4 0.4 0 1 0 -0.8 0Z M3.1 26.5 a0.4 0.4 0 1 0 0.8 0 a0.4 0.4 0 1 0 -0.8 0Z M4.1 26.5 a0.4 0.4 0 1 0 0.8 0 a0.4 0.4 0 1 0 -0.8 0Z M5.1 26.5 a0.4 0.4 0 1 0 0.8 0 a0.4 0.4 0 1 0 -0.8 0Z M6.1 26.5 a0.4 0.4 0 1 0 0.8 0 a0.4 0.4 0 1 0 -0.8 0Z M7.1 26.5 a0.4 0.4 0 1 0 0.8 0 a0.4 0.4 0 1 0 -0.8 0Z M8.1 26.5 a0.4 0.4 0 1 0 0.8 0 a0.4 0.4 0 1 0 -0.8 0Z M9.1 26.5 a0.4 0.4 0 1 0 0.8 0 a0.4 0.4 0 1 0 -0.8 0Z M10.1 26.5 a0.4 0.4 0 1 0 0.8 0 a0.4 0.4 0 1 0 -0.8 0Z M11.1 26.5 a0.4 0.4 0 1 0 0.8 0 a0.4 0.4 0 1 0 -0.8 0Z M12.1 26.5 a0.4 0.4 0 1 0 0.8 0 a0.4 0.4 0 1 0 -0.8 0Z M13.1 26.5 a0.4 0.4 0 1 0 0.8 0 a0.4 0.4 0 1 0 -0.8 0Z M14.1 26.5 a0.4 0.4 0 1 0 0.8 0 a0.4 0.4 0 1 0 -0.8 0Z M15.1 26.5 a0.4 0.4 0 1 0 0.8 0 a0.4 0.4 0 1 0 -0.8 0Z M16.1 26.5 a0.4 0.4 0 1 0 0.8 0 a0.4 0.4 0 1 0 -0.8 0Z M17.1 26.5 a0.4 0.4 0 1 0 0.8 0 a0.4 0.4 0 1 0 -0.8 0Z M18.1 26.5 a0.4 0.4 0 1 0 0.8 0 a0.4 0.4 0 1 0 -0.8 0Z M19.1 26.5 a0.4 0.4 0 1 0 0.8 0 a0.4 0.4 0 1 0 -0.8 0Z M20.1 26.5 a0.4 0.4 0 1 0 0.8 0 a0.4 0.4 0 1 0 -0.8 0Z M21.1 26.5 a0.4 0.4 0 1 0 0.8 0 a0.4 0.4 0 1 0 -0.8 0Z M22.1 26.5 a0.4 0.4 0 1 0 0.8 0 a0.4 0.4 0 1 0 -0.8 0Z M23.1 26.5 a0.4 0.4 0 1 0 0.8 0 a0.4 0.4 0 1 0 -0.8 0Z M24.1 26.5 a0.4 0.4 0 1 0 0.8 0 a0.4 0.4 0 1 0 -0.8 0Z M25.1 26.5 a0.4 0.4 0 1 0 0.8 0 a0.4 0.4 0 1 0 -0.8 0Z M26.1 26.5 a0.4 0.4 0 1 0 0.8 0 a0.4 0.4 0 1 0 -0.8 0Z M27.1 26.5 a0.4 0.4 0 1 0 0.8 0 a0.4 0.4 0 1 0 -0.8 0Z M28.1 26.5 a0.4 0.4 0 1 0 0.8 0 a0.4 0.4 0 1 0 -0.8 0Z M0.1 27.5 a0.4 0.4 0 1 0 0.8 0 a0.4 0.4 0 1 0 -0.8 0Z M1.1 27.5 a0.4 0.4 0 1 0 0.8 0 a0.4 0.4 0 1 0 -0.8 0Z M2.1 27.5 a0.4 0.4 0 1 0 0.8 0 a0.4 0.4 0 1 0 -0.8 0Z M3.1 27.5 a0.4 0.4 0 1 0 0.8 0 a0.4 0.4 0 1 0 -0.8 0Z M4.1 27.5 a0.4 0.4 0 1 0 0.8 0 a0.4 0.4 0 1 0 -0.8 0Z M5.1 27.5 a0.4 0.4 0 1 0 0.8 0 a0.4 0.4 0 1 0 -0.8 0Z M6.1 27.5 a0.4 0.4 0 1 0 0.8 0 a0.4 0.4 0 1 0 -0.8 0Z M7.1 27.5 a0.4 0.4 0 1 0 0.8 0 a0.4 0.4 0 1 0 -0.8 0Z M8.1 27.5 a0.4 0.4 0 1 0 0.8 0 a0.4 0.4 0 1 0 -0.8 0Z M9.1 27.5 a0.4 0.4 0 1 0 0.8 0 a0.4 0.4 0 1 0 -0.8 0Z M10.1 27.5 a0.4 0.4 0 1 0 0.8 0 a0.4 0.4 0 1 0 -0.8 0Z M11.1 27.5 a0.4 0.4 0 1 0 0.8 0 a0.4 0.4 0 1 0 -0.8 0Z M12.1 27.5 a0.4 0.4 0 1 0 0.8 0 a0.4 0.4 0 1 0 -0.8 0Z M13.1 27.5 a0.4 0.4 0 1 0 0.8 0 a0.4 0.4 0 1 0 -0.8 0Z M14.1 27.5 a0.4 0.4 0 1 0 0.8 0 a0.4 0.4 0 1 0 -0.8 0Z M15.1 27.5 a0.4 0.4 0 1 0 0.8 0 a0.4 0.4 0 1 0 -0.8 0Z M16.1 27.5 a0.4 0.4 0 1 0 0.8 0 a0.4 0.4 0 1 0 -0.8 0Z M17.1 27.5 a0.4 0.4 0 1 0 0.8 0 a0.4 0.4 0 1 0 -0.8 0Z M18.1 27.5 a0.4 0.4 0 1 0 0.8 0 a0.4 0.4 0 1 0 -0.8 0Z M19.1 27.5 a0.4 0.4 0 1 0 0.8 0 a0.4 0.4 0 1 0 -0.8 0Z M20.1 27.5 a0.4 0.4 0 1 0 0.8 0 a0.4 0.4 0 1 0 -0.8 0Z M21.1 27.5 a0.4 0.4 0 1 0 0.8 0 a0.4 0.4 0 1 0 -0.8 0Z M22.1 27.5 a0.4 0.4 0 1 0 0.8 0 a0.4 0.4 0 1 0 -0.8 0Z M23.1 27.5 a0.4 0.4 0 1 0 0.8 0 a0.4 0.4 0 1 0 -0.8 0Z M24.1 27.5 a0.4 0.4 0 1 0 0.8 0 a0.4 0.4 0 1 0 -0.8 0Z M25.1 27.5 a0.4 0.4 0 1 0 0.8 0 a0.4 0.4 0 1 0 -0.8 0Z M26.1 27.5 a0.4 0.4 0 1 0 0.8 0 a0.4 0.4 0 1 0 -0.8 0Z M27.1 27.5 a0.4 0.4 0 1 0 0.8 0 a0.4 0.4 0 1 0 -0.8 0Z M28.1 27.5 a0.4 0.4 0 1 0 0.8 0 a0.4 0.4 0 1 0 -0.8 0Z M0.1 28.5 a0.4 0.4 0 1 0 0.8 0 a0.4 0.4 0 1 0 -0.8 0Z M1.1 28.5 a0.4 0.4 0 1 0 0.8 0 a0.4 0.4 0 1 0 -0.8 0Z M2.1 28.5 a0.4 0.4 0 1 0 0.8 0 a0.4 0.4 0 1 0 -0.8 0Z M3.1 28.5 a0.4 0.4 0 1 0 0.8 0 a0.4 0.4 0 1 0 -0.8 0Z M4.1 28.5 a0.4 0.4 0 1 0 0.8 0 a0.4 0.4 0 1 0 -0.8 0Z M5.1 28.5 a0.4 0.4 0 1 0 0.8 0 a0.4 0.4 0 1 0 -0.8 0Z M6.1 28.5 a0.4 0.4 0 1 0 0.8 0 a0.4 0.4 0 1 0 -0.8 0Z M7.1 28.5 a0.4 0.4 0 1 0 0.8 0 a0.4 0.4 0 1 0 -0.8 0Z M8.1 28.5 a0.4 0.4 0 1 0 0.8 0 a0.4 0.4 0 1 0 -0.8 0Z M9.1 28.5 a0.4 0.4 0 1 0 0.8 0 a0.4 0.4 0 1 0 -0.8 0Z M10.1 28.5 a0.4 0.4 0 1 0 0.8 0 a0.4 0.4 0 1 0 -0.8 0Z M11.1 28.5 a0.4 0.4 0 1 0 0.8 0 a0.4 0.4 0 1 0 -0.8 0Z M12.1 28.5 a0.4 0.4 0 1 0 0.8 0 a0.4 0.4 0 1 0 -0.8 0Z M13.1 28.5 a0.4 0.4 0 1 0 0.8 0 a0.4 0.4 0 1 0 -0.8 0Z M14.1 28.5 a0.4 0.4 0 1 0 0.8 0 a0.4 0.4 0 1 0 -0.8 0Z M15.1 28.5 a0.4 0.4 0 1 0 0.8 0 a0.4 0.4 0 1 0 -0.8 0Z M16.1 28.5 a0.4 0.4 0 1 0 0.8 0 a0.4 0.4 0 1 0 -0.8 0Z M17.1 28.5 a0.4 0.4 0 1 0 0.8 0 a0.4 0.4 0 1 0 -0.8 0Z M18.1 28.5 a0.4 0.4 0 1 0 0.8 0 a0.4 0.4 0 1 0 -0.8 0Z M19.1 28.5 a0.4 0.4 0 1 0 0.8 0 a0.4 0.4 0 1 0 -0.8 0Z M20.1 28.5 a0.4 0.4 0 1 0 0.8 0 a0.4 0.4 0 1 0 -0.8 0Z M21.1 28.5 a0.4 0.4 0 1 0 0.8 0 a0.4 0.4 0 1 0 -0.8 0Z M22.1 28.5 a0.4 0.4 0 1 0 0.8 0 a0.4 0.4 0 1 0 -0.8 0Z M23.1 28.5 a0.4 0.4 0 1 0 0.8 0 a0.4 0.4 0 1 0 -0.8 0Z M24.1 28.5 a0.4 0.4 0 1 0 0.8 0 a0.4 0.4 0 1 0 -0.8 0Z M25.1 28.5 a0.4 0.4 0 1 0 0.8 0 a0.4 0.4 0 1 0 -0.8 0Z M26.1 28.5 a0.4 0.4 0 1 0 0.8 0 a0.4 0.4 0 1 0 -0.8 0Z M27.1 28.5 a0.4 0.4 0 1 0 0.8 0 a0.4 0.4 0 1 0 -0.8 0Z M28.1 28.5 a0.4 0.4 0 1 0 0.8 0 a0.4 0.4 0 1 0 -0.8 0Z"/>
<path class="qr-logo light qrcode" fill="#fff" d="M12.1 12.5 a0.4 0.4 0 1 0 0.8 0 a0.4 0.4 0 1 0 -0.8 0Z M13.1 12.5 a0.4 0.4 0 1 0 0.8 0 a0.4 0.4 0 1 0 -0.8 0Z M14.1 12.5 a0.4 0.4 0 1 0 0.8 0 a0.4 0.4 0 1 0 -0.8 0Z M15.1 12.5 a0.4 0.4 0 1 0 0.8 0 a0.4 0.4 0 1 0 -0.8 0Z M16.1 12.5 a0.4 0.4 0 1 0 0.8 0 a0.4 0.4 0 1 0 -0.8 0Z M12.1 13.5 a0.4 0.4 0 1 0 0.8 0 a0.4 0.4 0 1 0 -0.8 0Z M13.1 13.5 a0.4 0.4 0 1 0 0.8 0 a0.4 0.4 0 1 0 -0.8 0Z M14.1 13.5 a0.4 0.4 0 1 0 0.8 0 a0.4 0.4 0 1 0 -0.8 0Z M15.1 13.5 a0.4 0.4 0 1 0 0.8 0 a0.4 0.4 0 1 0 -0.8 0Z M16.1 13.5 a0.4 0.4 0 1 0 0.8 0 a0.4 0.4 0 1 0 -0.8 0Z M12.1 14.5 a0.4 0.4 0 1 0 0.8 0 a0.4 0.4 0 1 0 -0.8 0Z M13.1 14.5 a0.4 0.4 0 1 0 0.8 0 a0.4 0.4 0 1 0 -0.8 0Z M14.1 14.5 a0.4 0.4 0 1 0 0.8 0 a0.4 0.4 0 1 0 -0.8 0Z M15.1 14.5 a0.4 0.4 0 1 0 0.8 0 a0.4 0.4 0 1 0 -0.8 0Z M16.1 14.5 a0.4 0.4 0 1 0 0.8 0 a0.4 0.4 0 1 0 -0.8 0Z M12.1 15.5 a0.4 0.4 0 1 0 0.8 0 a0.4 0.4 0 1 0 -0.8 0Z M13.1 15.5 a0.4 0.4 0 1 0 0.8 0 a0.4 0.4 0 1 0 -0.8 0Z M14.1 15.5 a0.4 0.4 0 1 0 0.8 0 a0.4 0.4 0 1 0 -0.8 0Z M15.1 15.5 a0.4 0.4 0 1 0 0.8 0 a0.4 0.4 0 1 0 -0.8 0Z M16.1 15.5 a0.4 0.4 0 1 0 0.8 0 a0.4 0.4 0 1 0 -0.8 0Z M12.1 16.5 a0.4 0.4 0 1 0 0.8 0 a0.4 0.4 0 1 0 -0.8 0Z M13.1 16.5 a0.4 0.4 0 1 0 0.8 0 a0.4 0.4 0 1 0 -0.8 0Z M14.1 16.5 a0.4 0.4 0 1 0 0.8 0 a0.4 0.4 0 1 0 -0.8 0Z M15.1 16.5 a0.4 0.4 0 1 0 0.8 0 a0.4 0.4 0 1 0 -0.8 0Z M16.1 16.5 a0.4 0.4 0 1 0 0.8 0 a0.4 0.4 0 1 0 -0.8 0Z"/>
<path class="qr-darkmodule dark qrcode" fill="#000" d="M12.1 17.5 a0.4 0.4 0 1 0 0.8 0 a0.4 0.4 0 1 0 -0.8 0Z"/>
<path class="qr-data-dark dark qrcode" fill="#000" d="M16.1 4.5 a0.4 0.4 0 1 0 0.8 0 a0.4 0.4 0 1 0 -0.8 0Z M13.1 5.5 a0.4 0.4 0 1 0 0.8 0 a0.4 0.4 0 1 0 -0.8 0Z M14.1 5.5 a0.4 0.4 0 1 0 0.8 0 a0.4 0.4 0 1 0 -0.8 0Z M15.1 5.5 a0.4 0.4 0 1 0 0.8 0 a0.4 0.4 0 1 0 -0.8 0Z M16.1 5.5 a0.4 0.4 0 1 0 0.8 0 a0.4 0.4 0 1 0 -0.8 0Z M13.1 6.5 a0.4 0.4 0 1 0 0.8 0 a0.4 0.4 0 1 0 -0.8 0Z M16.1 6.5 a0.4 0.4 0 1 0 0.8 0 a0.4 0.4 0 1 0 -0.8 0Z M16.1 7.5 a0.4 0.4 0 1 0 0.8 0 a0.4 0.4 0 1 0 -0.8 0Z M13.1 8.5 a0.4 0.4 0 1 0 0.8 0 a0.4 0.4 0 1 0 -0.8 0Z M15.1 8.5 a0.4 0.4 0 1 0 0.8 0 a0.4 0.4 0 1 0 -0.8 0Z M16.1 8.5 a0.4 0.4 0 1 0 0.8 0 a0.4 0.4 0 1 0 -0.8 0Z M14.1 9.5 a0.4 0.4 0 1 0 0.8 0 a0.4 0.4 0 1 0 -0.8 0Z M15.1 9.5 a0.4 0.4 0 1 0 0.8 0 a0.4 0.4 0 1 0 -0.8 0Z M16.1 9.5 a0.4 0.4 0 1 0 0.8 0 a0.4 0.4 0 1 0 -0.8 0Z M13.1 11.5 a0.4 0.4 0 1 0 0.8 0 a0.4 0.4 0 1 0 -0.8 0Z M16.1 11.5 a0.4 0.4 0 1 0 0.8 0 a0.4 0.4 0 1 0 -0.8 0Z M6.1 13.5 a0.4 0.4 0 1 0 0.8 0 a0.4 0.4 0 1 0 -0.8 0Z M18.1 13.5 a0.4 0.4 0 1 0 0.8 0 a0.4 0.4 0 1 0 -0.8 0Z M21.1 13.5 a0.4 0.4 0 1 0 0.8 0 a0.4 0.4 0 1 0 -0.8 0Z M23.1 13.5 a0.4 0.4 0 1 0 0.8 0 a0.4 0.4 0 1 0 -0.8 0Z M5.1 14.5 a0.4 0.4 0 1 0 0.8 0 a0.4 0.4 0 1 0 -0.8 0Z M6.1 14.5 a0.4 0.4 0 1 0 0.8 0 a0.4 0.4 0 1 0 -0.8 0Z M8.1 14.5 a0.4 0.4 0 1 0 0.8 0 a0.4 0.4 0 1 0 -0.8 0Z M11.1 14.5 a0.4 0.4 0 1 0 0.8 0 a0.4 0.4 0 1 0 -0.8 0Z M17.1 14.5 a0.4 0.4 0 1 0 0.8 0 a0.4 0.4 0 1 0 -0.8 0Z M18.1 14.5 a0.4 0.4 0 1 0 0.8 0 a0.4 0.4 0 1 0 -0.8 0Z M22.1 14.5 a0.4 0.4 0 1 0 0.8 0 a0.4 0.4 0 1 0 -0.8 0Z M23.1 14.5 a0.4 0.4 0 1 0 0.8 0 a0.4 0.4 0 1 0 -0.8 0Z M8.1 15.5 a0.4 0.4 0 1 0 0.8 0 a0.4 0.4 0 1 0 -0.8 0Z M11.1 15.5 a0.4 0.4 0 1 0 0.8 0 a0.4 0.4 0 1 0 -0.8 0Z M17.1 15.5 a0.4 0.4 0 1 0 0.8 0 a0.4 0.4 0 1 0 -0.8 0Z M18.1 15.5 a0.4 0.4 0 1 0 0.8 0 a0.4 0.4 0 1 0 -0.8 0Z M21.1 15.5 a0.4 0.4 0 1 0 0.8 0 a0.4 0.4 0 1 0 -0.8 0Z M23.1 15.5 a0.4 0.4 0 1 0 0.8 0 a0.4 0.4 0 1 0 -0.8 0Z M24.1 15.5 a0.4 0.4 0 1 0 0.8 0 a0.4 0.4 0 1 0 -0.8 0Z M4.1 16.5 a0.4 0.4 0 1 0 0.8 0 a0.4 0.4 0 1 0 -0.8 0Z M6.1 16.5 a0.4 0.4 0 1 0 0.8 0 a0.4 0.4 0 1 0 -0.8 0Z M7.1 16.5 a0.4 0.4 0 1 0 0.8 0 a0.4 0.4 0 1 0 -0.8 0Z M18.1 16.5 a0.4 0.4 0 1 0 0.8 0 a0.4 0.4 0 1 0 -0.8 0Z M20.1 16.5 a0.4 0.4 0 1 0 0.8 0 a0.4 0.4 0 1 0 -0.8 0Z M23.1 16.5 a0.4 0.4 0 1 0 0.8 0 a0.4 0.4 0 1 0 -0.8 0Z M13.1 17.5 a0.4 0.4 0 1 0 0.8 0 a0.4 0.4 0 1 0 -0.8 0Z M16.1 17.5 a0.4 0.4 0 1 0 0.8 0 a0.4 0.4 0 1 0 -0.8 0Z M19.1 17.5 a0.4 0.4 0 1 0 0.8 0 a0.4 0.4 0 1 0 -0.8 0Z M20.1 17.5 a0.4 0.4 0 1 0 0.8 0 a0.4 0.4 0 1 0 -0.8 0Z M22.1 17.5 a0.4 0.4 0 1 0 0.8 0 a0.4 0.4 0 1 0 -0.8 0Z M13.1 18.5 a0.4 0.4 0 1 0 0.8 0 a0.4 0.4 0 1 0 -0.8 0Z M14.1 18.5 a0.4 0.4 0 1 0 0.8 0 a0.4 0.4 0 1 0 -0.8 0Z M17.1 18.5 a0.4 0.4 0 1 0 0.8 0 a0.4 0.4 0 1 0 -0.8 0Z M18.1 18.5 a0.4 0.4 0 1 0 0.8 0 a0.4 0.4 0 1 0 -0.8 0Z M19.1 18.5 a0.4 0.4 0 1 0 0.8 0 a0.4 0.4 0 1 0 -0.8 0Z M21.1 18.5 a0.4 0.4 0 1 0 0.8 0 a0.4 0.4 0 1 0 -0.8 0Z M22.1 18.5 a0.4 0.4 0 1 0 0.8 0 a0.4 0.4 0 1 0 -0.8 0Z M23.1 18.5 a0.4 0.4 0 1 0 0.8 0 a0.4 0.4 0 1 0 -0.8 0Z M24.1 18.5 a0.4 0.4 0 1 0 0.8 0 a0.4 0.4 0 1 0 -0.8 0Z M17.1 19.5 a0.4 0.4 0 1 0 0.8 0 a0.4 0.4 0 1 0 -0.8 0Z M19.1 19.5 a0.4 0.4 0 1 0 0.8 0 a0.4 0.4 0 1 0 -0.8 0Z M20.1 19.5 a0.4 0.4 0 1 0 0.8 0 a0.4 0.4 0 1 0 -0.8 0Z M23.1 19.5 a0.4 0.4 0 1 0 0.8 0 a0.4 0.4 0 1 0 -0.8 0Z M24.1 19.5 a0.4 0.4 0 1 0 0.8 0 a0.4 0.4 0 1 0 -0.8 0Z M14.1 20.5 a0.4 0.4 0 1 0 0.8 0 a0.4 0.4 0 1 0 -0.8 0Z M16.1 20.5 a0.4 0.4 0 1 0 0.8 0 a0.4 0.4 0 1 0 -0.8 0Z M17.1 20.5 a0.4 0.4 0 1 0 0.8 0 a0.4 0.4 0 1 0 -0.8 0Z M18.1 20.5 a0.4 0.4 0 1 0 0.8 0 a0.4 0.4 0 1 0 -0.8 0Z M19.1 20.5 a0.4 0.4 0 1 0 0.8 0 a0.4 0.4 0 1 0 -0.8 0Z M20.1 20.5 a0.4 0.4 0 1 0 0.8 0 a0.4 0.4 0 1 0 -0.8 0Z M21.1 20.5 a0.4 0.4 0 1 0 0.8 0 a0.4 0.4 0 1 0 -0.8 0Z M23.1 20.5 a0.4 0.4 0 1 0 0.8 0 a0.4 0.4 0 1 0 -0.8 0Z M24.1 20.5 a0.4 0.4 0 1 0 0.8 0 a0.4 0.4 0 1 0 -0.8 0Z M15.1 21.5 a0.4 0.4 0 1 0 0.8 0 a0.4 0.4 0 1 0 -0.8 0Z M18.1 21.5 a0.4 0.4 0 1 0 0.8 0 a0.4 0.4 0 1 0 -0.8 0Z M19.1 21.5 a0.4 0.4 0 1 0 0.8 0 a0.4 0.4 0 1 0 -0.8 0Z M21.1 21.5 a0.4 0.4 0 1 0 0.8 0 a0.4 0.4 0 1 0 -0.8 0Z M22.1 21.5 a0.4 0.4 0 1 0 0.8 0 a0.4 0.4 0 1 0 -0.8 0Z M23.1 21.5 a0.4 0.4 0 1 0 0.8 0 a0.4 0.4 0 1 0 -0.8 0Z M24.1 21.5 a0.4 0.4 0 1 0 0.8 0 a0.4 0.4 0 1 0 -0.8 0Z M13.1 22.5 a0.4 0.4 0 1 0 0.8 0 a0.4 0.4 0 1 0 -0.8 0Z M14.1 22.5 a0.4 0.4 0 1 0 0.8 0 a0.4 0.4 0 1 0 -0.8 0Z M16.1 22.5 a0.4 0.4 0 1 0 0.8 0 a0.4 0.4 0 1 0 -0.8 0Z M18.1 22.5 a0.4 0.4 0 1 0 0.8 0 a0.4 0.4 0 1 0 -0.8 0Z M20.1 22.5 a0.4 0.4 0 1 0 0.8 0 a0.4 0.4 0 1 0 -0.8 0Z M22.1 22.5 a0.4 0.4 0 1 0 0.8 0 a0.4 0.4 0 1 0 -0.8 0Z M24.1 22.5 a0.4 0.4 0 1 0 0.8 0 a0.4 0.4 0 1 0 -0.8 0Z M13.1 23.5 a0.4 0.4 0 1 0 0.8 0 a0.4 0.4 0 1 0 -0.8 0Z M17.1 23.5 a0.4 0.4 0 1 0 0.8 0 a0.4 0.4 0 1 0 -0.8 0Z M19.1 23.5 a0.4 0.4 0 1 0 0.8 0 a0.4 0.4 0 1 0 -0.8 0Z M20.1 23.5 a0.4 0.4 0 1 0 0.8 0 a0.4 0.4 0 1 0 -0.8 0Z M21.1 23.5 a0.4 0.4 0 1 0 0.8 0 a0.4 0.4 0 1 0 -0.8 0Z M23.1 23.5 a0.4 0.4 0 1 0 0.8 0 a0.4 0.4 0 1 0 -0.8 0Z M13.1 24.5 a0.4 0.4 0 1 0 0.8 0 a0.4 0.4 0 1 0 -0.8 0Z M15.1 24.5 a0.4 0.4 0 1 0 0.8 0 a0.4 0.4 0 1 0 -0.8 0Z M17.1 24.5 a0.4 0.4 0 1 0 0.8 0 a0.4 0.4 0 1 0 -0.8 0Z M18.1 24.5 a0.4 0.4 0 1 0 0.8 0 a0.4 0.4 0 1 0 -0.8 0Z M20.1 24.5 a0.4 0.4 0 1 0 0.8 0 a0.4 0.4 0 1 0 -0.8 0Z M21.1 24.5 a0.4 0.4 0 1 0 0.8 0 a0.4 0.4 0 1 0 -0.8 0Z M22.1 24.5 a0.4 0.4 0 1 0 0.8 0 a0.4 0.4 0 1 0 -0.8 0Z"/>
<path class="qr-finder-dark dark qrcode" fill="#000" d="M4 4 h1 v1 h-1Z M5 4 h1 v1 h-1Z M6 4 h1 v1 h-1Z M7 4 h1 v1 h-1Z M8 4 h1 v1 h-1Z M9 4 h1 v1 h-1Z M10 4 h1 v1 h-1Z M18 4 h1 v1 h-1Z M19 4 h1 v1 h-1Z M20 4 h1 v1 h-1Z M21 4 h1 v1 h-1Z M22 4 h1 v1 h-1Z M23 4 h1 v1 h-1Z M24 4 h1 v1 h-1Z M4 5 h1 v1 h-1Z M10 5 h1 v1 h-1Z M18 5 h1 v1 h-1Z M24 5 h1 v1 h-1Z M4 6 h1 v1 h-1Z M10 6 h1 v1 h-1Z M18 6 h1 v1 h-1Z M24 6 h1 v1 h-1Z M4 7 h1 v1 h-1Z M10 7 h1 v1 h-1Z M18 7 h1 v1 h-1Z M24 7 h1 v1 h-1Z M4 8 h1 v1 h-1Z M10 8 h1 v1 h-1Z M18 8 h1 v1 h-1Z M24 8 h1 v1 h-1Z M4 9 h1 v1 h-1Z M10 9 h1 v1 h-1Z M18 9 h1 v1 h-1Z M24 9 h1 v1 h-1Z M4 10 h1 v1 h-1Z M5 10 h1 v1 h-1Z M6 10 h1 v1 h-1Z M7 10 h1 v1 h-1Z M8 10 h1 v1 h-1Z M9 10 h1 v1 h-1Z M10 10 h1 v1 h-1Z M18 10 h1 v1 h-1Z M19 10 h1 v1 h-1Z M20 10 h1 v1 h-1Z M21 10 h1 v1 h-1Z M22 10 h1 v1 h-1Z M23 10 h1 v1 h-1Z M24 10 h1 v1 h-1Z M4 18 h1 v1 h-1Z M5 18 h1 v1 h-1Z M6 18 h1 v1 h-1Z M7 18 h1 v1 h-1Z M8 18 h1 v1 h-1Z M9 18 h1 v1 h-1Z M10 18 h1 v1 h-1Z M4 19 h1 v1 h-1Z M10 19 h1 v1 h-1Z M4 20 h1 v1 h-1Z M10 20 h1 v1 h-1Z M4 21 h1 v1 h-1Z M10 21 h1 v1 h-1Z M4 22 h1 v1 h-1Z M10 22 h1 v1 h-1Z M4 23 h1 v1 h-1Z M10 23 h1 v1 h-1Z M4 24 h1 v1 h-1Z M5 24 h1 v1 h-1Z M6 24 h1 v1 h-1Z M7 24 h1 v1 h-1Z M8 24 h1 v1 h-1Z M9 24 h1 v1 h-1Z M10 24 h1 v1 h-1Z"/>
<path class="qr-timing-dark dark qrcode" fill="#000" d="M12.1 10.5 a0.4 0.4 0 1 0 0.8 0 a0.4 0.4 0 1 0 -0.8 0Z M14.1 10.5 a0.4 0.4 0 1 0 0.8 0 a0.4 0.4 0 1 0 -0.8 0Z M16.1 10.5 a0.4 0.4 0 1 0 0.8 0 a0.4 0.4 0 1 0 -0.8 0Z M10.1 12.5 a0.4 0.4 0 1 0 0.8 0 a0.4 0.4 0 1 0 -0.8 0Z M10.1 14.5 a0.4 0.4 0 1 0 0.8 0 a0.4 0.4 0 1 0 -0.8 0Z M10.1 16.5 a0.4 0.4 0 1 0 0.8 0 a0.4 0.4 0 1 0 -0.8 0Z"/>
<path class="qr-format-dark dark qrcode" fill="#000" d="M12.1 4.5 a0.4 0.4 0 1 0 0.8 0 a0.4 0.4 0 1 0 -0.8 0Z M12.1 5.5 a0.4 0.4 0 1 0 0.8 0 a0.4 0.4 0 1 0 -0.8 0Z M12.1 7.5 a0.4 0.4 0 1 0 0.8 0 a0.4 0.4 0 1 0 -0.8 0Z M12.1 8.5 a0.4 0.4 0 1 0 0.8 0 a0.4 0.4 0 1 0 -0.8 0Z M12.1 9.5 a0.4 0.4 0 1 0 0.8 0 a0.4 0.4 0 1 0 -0.8 0Z M7.1 12.5 a0.4 0.4 0 1 0 0.8 0 a0.4 0.4 0 1 0 -0.8 0Z M19.1 12.5 a0.4 0.4 0 1 0 0.8 0 a0.4 0.4 0 1 0 -0.8 0Z M20.1 12.5 a0.4 0.4 0 1 0 0.8 0 a0.4 0.4 0 1 0 -0.8 0Z M21.1 12.5 a0.4 0.4 0 1 0 0.8 0 a0.4 0.4 0 1 0 -0.8 0Z M23.1 12.5 a0.4 0.4 0 1 0 0.8 0 a0.4 0.4 0 1 0 -0.8 0Z M24.1 12.5 a0.4 0.4 0 1 0 0.8 0 a0.4 0.4 0 1 0 -0.8 0Z M12.1 21.5 a0.4 0.4 0 1 0 0.8 0 a0.4 0.4 0 1 0 -0.8 0Z"/>
<path class="qr-finder-dot dark qrcode" fill="#000" d="M6 6 h1 v1 h-1Z M7 6 h1 v1 h-1Z M8 6 h1 v1 h-1Z M20 6 h1 v1 h-1Z M21 6 h1 v1 h-1Z M22 6 h1 v1 h-1Z M6 7 h1 v1 h-1Z M7 7 h1 v1 h-1Z M8 7 h1 v1 h-1Z M20 7 h1 v1 h-1Z M21 7 h1 v1 h-1Z M22 7 h1 v1 h-1Z M6 8 h1 v1 h-1Z M7 8 h1 v1 h-1Z M8 8 h1 v1 h-1Z M20 8 h1 v1 h-1Z M21 8 h1 v1 h-1Z M22 8 h1 v1 h-1Z M6 20 h1 v1 h-1Z M7 20 h1 v1 h-1Z M8 20 h1 v1 h-1Z M6 21 h1 v1 h-1Z M7 21 h1 v1 h-1Z M8 21 h1 v1 h-1Z M6 22 h1 v1 h-1Z M7 22 h1 v1 h-1Z M8 22 h1 v1 h-1Z"/>
</svg>
